<svg xmlns="http://www.w3.org/2000/svg" width="51" height="44" viewBox="0 0 51 44" fill="none">
    <g filter="url(#filter0_d_1838_946)">
        <path d="M33.6716 14.4921C32.1419 13.8015 30.5015 13.2926 28.7865 13.0012C28.7552 12.9956 28.724 13.0097 28.7079 13.0378C28.497 13.407 28.2633 13.8886 28.0996 14.2672C26.255 13.9955 24.4197 13.9955 22.6129 14.2672C22.4492 13.8802 22.207 13.407 21.9951 13.0378C21.979 13.0106 21.9478 12.9965 21.9166 13.0012C20.2025 13.2917 18.5621 13.8005 17.0315 14.4921C17.0182 14.4977 17.0069 14.5071 16.9993 14.5193C13.8879 19.0931 13.0356 23.5545 13.4537 27.9606C13.4556 27.9822 13.4679 28.0028 13.485 28.0159C15.5378 29.4993 17.5263 30.3998 19.4778 30.9967C19.5091 31.0061 19.5422 30.9949 19.562 30.9695C20.0237 30.3492 20.4352 29.6952 20.788 29.0073C20.8089 28.967 20.789 28.9192 20.7464 28.9033C20.0937 28.6597 19.4722 28.3626 18.8743 28.0253C18.827 27.9981 18.8232 27.9316 18.8667 27.8997C18.9925 27.8069 19.1184 27.7104 19.2385 27.613C19.2602 27.5952 19.2905 27.5914 19.3161 27.6026C23.2438 29.3672 27.4961 29.3672 31.3775 27.6026C31.4031 27.5905 31.4333 27.5942 31.456 27.612C31.5762 27.7095 31.702 27.8069 31.8288 27.8997C31.8723 27.9316 31.8694 27.9981 31.8221 28.0253C31.2243 28.3692 30.6027 28.6597 29.9491 28.9024C29.9065 28.9183 29.8876 28.967 29.9084 29.0073C30.2688 29.6942 30.6803 30.3483 31.1334 30.9686C31.1524 30.9949 31.1864 31.0061 31.2177 30.9967C33.1787 30.3998 35.1672 29.4993 37.22 28.0159C37.238 28.0028 37.2493 27.9831 37.2512 27.9616C37.7516 22.8676 36.413 18.4428 33.7028 14.5202C33.6961 14.5071 33.6848 14.4977 33.6716 14.4921ZM21.3746 25.2778C20.1921 25.2778 19.2177 24.2095 19.2177 22.8976C19.2177 21.5857 20.1732 20.5175 21.3746 20.5175C22.5854 20.5175 23.5504 21.5951 23.5314 22.8976C23.5314 24.2095 22.576 25.2778 21.3746 25.2778ZM29.3493 25.2778C28.1668 25.2778 27.1924 24.2095 27.1924 22.8976C27.1924 21.5857 28.1479 20.5175 29.3493 20.5175C30.5602 20.5175 31.5251 21.5951 31.5062 22.8976C31.5062 24.2095 30.5602 25.2778 29.3493 25.2778Z" fill="black"/>
    </g>
    <defs>
        <filter id="filter0_d_1838_946" x="0.354553" y="0" width="50" height="44" filterUnits="userSpaceOnUse" color-interpolation-filters="sRGB">
            <feFlood flood-opacity="0" result="BackgroundImageFix"/>
            <feColorMatrix in="SourceAlpha" type="matrix" values="0 0 0 0 0 0 0 0 0 0 0 0 0 0 0 0 0 0 127 0" result="hardAlpha"/>
            <feOffset/>
            <feGaussianBlur stdDeviation="6.5"/>
            <feComposite in2="hardAlpha" operator="out"/>
            <feColorMatrix type="matrix" values="0 0 0 0 1 0 0 0 0 1 0 0 0 0 1 0 0 0 0.46 0"/>
            <feBlend mode="normal" in2="BackgroundImageFix" result="effect1_dropShadow_1838_946"/>
            <feBlend mode="normal" in="SourceGraphic" in2="effect1_dropShadow_1838_946" result="shape"/>
        </filter>
    </defs>
</svg>