<svg width="205" height="52" viewBox="0 0 205 52" fill="none" xmlns="http://www.w3.org/2000/svg">
    <path d="M26.9124 52L19.2977 44.3874H8.52796V33.6148L0.912689 26L8.52796 18.3846V7.6148H19.2977L26.9124 0L34.5277 7.6148H45.2974V18.3846L52.9127 26L45.2974 33.6148V44.3874H34.5277L26.9124 52ZM20.0162 43.9914L26.9124 50.8877L33.8086 43.9914L26.9124 37.0952L20.0162 43.9914ZM34.754 43.5971H44.5049V33.8462H34.7585L34.754 43.5971ZM9.31157 43.5971H19.0624V33.8462H9.31157V43.5971ZM26.908 35.9818L33.966 43.0399V33.0575H43.9471L36.8896 26L43.9471 18.9419H33.9704V8.96068L26.9124 16.0188L19.8549 8.96068V18.9419H9.87383L16.9313 26L9.87383 33.0575H19.8549V43.0388L26.908 35.9818ZM38.0041 26.0011L44.9003 32.8974L51.7965 26.0011L44.9003 19.1049L38.0041 26.0011ZM2.02164 26.0011L8.91782 32.8974L15.814 26.0011L8.91782 19.1049L2.02164 26.0011ZM34.7585 18.1538H44.5094V8.40453H34.7585V18.1538ZM9.31602 18.1538H19.0669V8.40453H9.31602V18.1538ZM20.0184 8.00911L26.9146 14.9054L33.8108 8.00911L26.9146 1.11286L20.0184 8.00911Z" fill="black"/>
    <path d="M204.355 16.1146H191.352V22.6922H200.11L203.36 25.9809V35.8855L200.11 39.2125H190.855L187.566 35.8855V33.2468L191.352 29.6139V35.8855H199.574V25.9809H190.855L187.566 22.6922V16.1146L190.855 12.7876H201.028L204.355 16.1146Z" fill="black"/>
    <path d="M184.616 39.2125H171.422V19.3651L174.749 16.1146H170.963V12.7876H184.616V16.1146H175.208V25.522L178 22.6922H184.616V25.9809H175.208V35.8855H184.616V39.2125Z" fill="black"/>
    <path d="M165.394 39.1743H161.609V18.4856L163.98 16.1529H160.882L155.796 25.9809H153.042L148.148 16.1529H145.088L147.459 18.4856V39.1743H143.673V12.7876H150.442L154.381 21.4684H154.84L158.855 12.7876H165.394V39.1743Z" fill="black"/>
    <path d="M137.629 39.2125H133.882V29.308H124.895V39.2125H121.109V16.1146L124.436 12.7876H137.629V39.2125ZM136.253 16.1146H124.895V28.8491L127.763 25.9809H133.882V18.4856L136.253 16.1146Z" fill="black"/>
    <path d="M116.993 16.1146H103.341V35.8855H112.289V25.9809H106.132L109.459 22.6922H116.075V39.2125H112.289V36.3827L109.459 39.2125H102.843L99.5547 35.8855V16.1146L102.843 12.7876H113.666L116.993 16.1146Z" fill="black"/>
    <path d="M95.6553 39.2125H91.8694V32.8262L87.4716 26.4781H87.0127L82.8826 32.8262V39.2125H79.1349V31.9084L84.7947 23.8777L79.1349 16.2293V12.7876H82.8826V15.4263L87.3186 21.6979H87.7775L91.8694 15.4263V12.7876H95.6553V16.2293L90.0338 23.8777L95.617 31.9084L95.6553 39.2125Z" fill="black"/>
    <path d="M78.5153 16.1146H72.5878V39.2125H68.8019V16.1146H62.9127V12.7876H78.5153V16.1146Z" fill="black"/>
</svg>
