<svg width="73" height="74" viewBox="0 0 73 74" fill="none" xmlns="http://www.w3.org/2000/svg">
<rect x="4.50003" y="5" width="64" height="64" rx="10.9712" fill="#090A18"/>
<rect x="2.30579" y="2.80576" width="68.3885" height="68.3885" rx="13.1654" stroke="url(#paint0_linear_1847_3285)" stroke-opacity="0.75" stroke-width="4.38848"/>
<path d="M4.5 22.9473L5.71035 24.0063C6.66271 24.8396 7.20899 26.0435 7.20899 27.309V46.6914C7.20899 47.9568 6.66271 49.1607 5.71035 49.994L4.5 51.0531V22.9473Z" fill="#FFBC4F"/>
<path d="M68.5 51.0527L67.2897 49.9937C66.3373 49.1604 65.791 47.9565 65.791 46.691L65.791 27.3086C65.791 26.0432 66.3373 24.8393 67.2897 24.006L68.5 22.9469L68.5 51.0527Z" fill="#FFBC4F"/>
<path d="M41.2893 37.879C40.1747 41.063 36.6901 42.7406 33.5061 41.626C30.3222 40.5115 28.6446 37.0268 29.7591 33.8429C30.8737 30.6589 34.3583 28.9813 37.5423 30.0959C40.7262 31.2104 42.4038 34.6951 41.2893 37.879Z" fill="#FFBC4F"/>
<path d="M52.4865 22.8147C50.2615 20.8049 47.3541 19.0701 43.9873 17.8915C34.8866 14.7058 25.8753 16.7908 23.8599 22.5483C22.6905 25.8888 24.1331 29.7317 27.3277 32.9917C21.617 29.217 18.5767 23.6209 20.2326 18.8903C22.3714 12.7802 31.5351 10.4278 40.7002 13.6361C46.1805 15.5544 50.4203 19.0266 52.4865 22.8147Z" fill="#FFBC4F"/>
<path d="M38.3417 57.0738C41.1946 56.1517 44.1506 54.5013 46.8546 52.1749C54.1638 45.8864 56.8639 37.0399 52.8854 32.4156C50.577 29.7326 46.5275 29.0605 42.1068 30.1973C48.2313 27.1389 54.598 27.3038 57.8669 31.1032C62.089 36.0106 59.5444 45.1228 52.1834 51.4559C47.7821 55.2426 42.6553 57.1784 38.3417 57.0738Z" fill="#FFBC4F"/>
<path d="M15.7447 27.6944C15.1167 30.6262 15.068 34.0114 15.7307 37.5164C17.5222 46.9906 23.8334 53.7522 29.8274 52.6188C33.3051 51.9612 35.9118 48.7904 37.1377 44.3936C36.7241 51.2268 33.3979 56.658 28.4731 57.5892C22.1122 58.7919 15.4931 52.0322 13.689 42.4908C12.6102 36.7857 13.4972 31.3779 15.7447 27.6944Z" fill="#FFBC4F"/>
<defs>
<linearGradient id="paint0_linear_1847_3285" x1="-3.50002" y1="-4.5" x2="73" y2="74" gradientUnits="userSpaceOnUse">
<stop stop-color="#FF4C00"/>
<stop offset="1" stop-color="#F5B101"/>
</linearGradient>
</defs>
</svg>
