<svg width="73" height="74" viewBox="0 0 73 74" fill="none" xmlns="http://www.w3.org/2000/svg">
<rect x="4.49991" y="5" width="64" height="64" rx="10.9712" fill="#090A18"/>
<rect x="2.30567" y="2.80576" width="68.3885" height="68.3885" rx="13.1654" stroke="url(#paint0_linear_1847_3633)" stroke-opacity="0.75" stroke-width="4.38848"/>
<path d="M4.50003 22.9473L5.71038 24.0063C6.66274 24.8396 7.20903 26.0435 7.20903 27.309V46.6914C7.20903 47.9568 6.66274 49.1607 5.71038 49.994L4.50003 51.0531V22.9473Z" fill="#FFBC4F"/>
<path d="M68.5 51.0527L67.2897 49.9937C66.3373 49.1604 65.791 47.9565 65.791 46.691L65.791 27.3086C65.791 26.0432 66.3373 24.8393 67.2897 24.006L68.5 22.9469L68.5 51.0527Z" fill="#FFBC4F"/>
<path fill-rule="evenodd" clip-rule="evenodd" d="M39.3185 42.3105C41.1619 41.0243 42.4132 38.516 42.4132 35.6324C42.4132 31.4376 39.7652 28.0371 36.4988 28.0371C33.2323 28.0371 30.5843 31.4376 30.5843 35.6324C30.5843 38.5159 31.8356 41.0241 33.6789 42.3104C29.0231 43.5531 25.5938 47.7996 25.5938 52.8471V58.5681H47.4032V52.8471C47.4032 47.7998 43.9741 43.5534 39.3185 42.3105Z" fill="#FFBC4F"/>
<path d="M36.501 12.4941L40.2576 21.3981H32.7444L36.501 12.4941Z" fill="#FFBC4F"/>
<path d="M59.2356 35.1257L50.3316 38.8823L50.3316 31.3691L59.2356 35.1257Z" fill="#FFBC4F"/>
<path d="M13.7656 35.1257L22.6695 38.8823L22.6695 31.3691L13.7656 35.1257Z" fill="#FFBC4F"/>
<path fill-rule="evenodd" clip-rule="evenodd" d="M43.7104 44.0818C46.3249 41.9743 47.9976 38.7454 47.9976 35.1258C47.9976 28.7762 42.8502 23.6288 36.5005 23.6288C30.1508 23.6288 25.0034 28.7762 25.0034 35.1258C25.0034 38.7452 26.6759 41.974 29.2901 44.0814C28.389 44.73 27.5787 45.4969 26.8821 46.3594C23.7174 43.6472 21.7121 39.6207 21.7121 35.1258C21.7121 26.9584 28.3331 20.3374 36.5005 20.3374C44.6679 20.3374 51.2889 26.9584 51.2889 35.1258C51.2889 39.621 49.2834 43.6477 46.1183 46.3599C45.4217 45.4974 44.6115 44.7304 43.7104 44.0818Z" fill="#FFBC4F"/>
<defs>
<linearGradient id="paint0_linear_1847_3633" x1="-3.50014" y1="-4.5" x2="72.9999" y2="74" gradientUnits="userSpaceOnUse">
<stop stop-color="#FF4C00"/>
<stop offset="1" stop-color="#F5B101"/>
</linearGradient>
</defs>
</svg>
