<svg width="73" height="74" viewBox="0 0 73 74" fill="none" xmlns="http://www.w3.org/2000/svg">
<rect x="4.50002" y="5" width="64" height="64" rx="10.9712" fill="#090A18"/>
<rect x="2.30577" y="2.80576" width="68.3885" height="68.3885" rx="13.1654" stroke="url(#paint0_linear_1847_3658)" stroke-opacity="0.75" stroke-width="4.38848"/>
<path d="M4.50002 22.9473L5.71036 24.0063C6.66273 24.8396 7.20901 26.0435 7.20901 27.309V46.6914C7.20901 47.9568 6.66273 49.1607 5.71036 49.994L4.50002 51.0531V22.9473Z" fill="#FFBC4F"/>
<path d="M68.5 51.0527L67.2897 49.9937C66.3373 49.1604 65.791 47.9565 65.791 46.691L65.791 27.3086C65.791 26.0432 66.3373 24.8393 67.2897 24.006L68.5 22.9469L68.5 51.0527Z" fill="#FFBC4F"/>
<path d="M22.5181 54.4494C19.7168 55.5984 17.1476 55.7069 15.1374 54.5463C9.26292 51.1547 10.3878 38.2084 17.6499 25.6301C24.912 13.0517 35.5614 5.60441 41.4359 8.99606C43.446 10.1566 44.6367 12.4359 45.0423 15.4364C44.7416 15.3791 44.432 15.3453 44.1142 15.3344C43.6341 13.6961 42.7862 12.4551 41.5556 11.7446C36.5575 8.85896 27.138 15.8167 20.5167 27.2852C13.8953 38.7537 12.5795 50.39 17.5776 53.2757C18.8082 53.9862 20.3069 54.1 21.9657 53.6966C22.1341 53.9664 22.3182 54.2177 22.5181 54.4494Z" fill="#FFBC4F"/>
<path d="M32.9961 54.0434C29.5292 56.2674 26.2446 56.9445 23.8637 55.5699C18.7659 52.6266 19.742 41.3919 26.0441 30.4764C32.3461 19.561 41.5876 13.0982 46.6854 16.0415C49.0663 17.4161 50.1223 20.5992 49.9297 24.7136C49.7632 24.7047 49.5936 24.7042 49.4214 24.7118C49.4077 21.7107 48.5499 19.4432 46.7894 18.4268C42.452 15.9226 34.2779 21.9605 28.5319 31.9128C22.7859 41.8651 21.644 51.9631 25.9814 54.4673C27.7419 55.4837 30.1346 55.0928 32.7404 53.6041C32.8199 53.7571 32.9052 53.9036 32.9961 54.0434Z" fill="#FFBC4F"/>
<path d="M42.7007 53.2737C39.5756 55.7062 36.5138 56.6168 34.3927 55.3922C30.5052 53.1478 31.2496 44.5804 36.0554 36.2565C40.8612 27.9326 47.9086 23.0042 51.7961 25.2487C53.9172 26.4733 54.6594 29.5802 54.1153 33.5029C54.0059 33.5196 53.8951 33.5406 53.7831 33.5658C54.142 30.4395 53.5341 28.0252 51.8753 27.0675C48.5677 25.1579 42.3342 29.7623 37.9525 37.3517C33.5707 44.9411 32.6999 52.6416 36.0075 54.5513C37.6663 55.509 40.061 54.8283 42.589 52.9544C42.6232 53.064 42.6604 53.1705 42.7007 53.2737Z" fill="#FFBC4F"/>
<path fill-rule="evenodd" clip-rule="evenodd" d="M51.9137 54.4484C53.6618 55.4576 56.8307 53.2416 58.9916 49.4987C61.1526 45.7558 61.4873 41.9034 59.7393 40.8942C57.9912 39.885 54.8223 42.101 52.6614 45.8439C50.5004 49.5868 50.1657 53.4392 51.9137 54.4484ZM52.7311 54.1231C54.2184 54.9818 57.0214 52.9113 58.9916 49.4987C60.9619 46.0861 61.3534 42.6235 59.8661 41.7649C58.3789 40.9062 55.576 42.9766 53.6057 46.3892C51.6354 49.8018 51.2438 53.2644 52.7311 54.1231Z" fill="#FFBC4F"/>
<path d="M50.8514 52.607C48.3336 54.9272 45.7514 55.9215 44.042 54.9346C41.3207 53.3634 41.8418 47.3663 45.2059 41.5395C48.5699 35.7128 53.5031 32.2629 56.2244 33.8341C57.9338 34.821 58.3638 37.5543 57.6134 40.8948C57.5402 40.9235 57.4664 40.9545 57.3921 40.988C58.0046 38.1649 57.6674 35.9084 56.2801 35.1074C53.9648 33.7707 49.6013 36.9937 46.5341 42.3063C43.4669 47.6189 42.8573 53.0093 45.1726 54.346C46.56 55.147 48.6828 54.3108 50.8214 52.3688C50.8296 52.4499 50.8396 52.5293 50.8514 52.607Z" fill="#FFBC4F"/>
<defs>
<linearGradient id="paint0_linear_1847_3658" x1="-3.50003" y1="-4.5" x2="73" y2="74" gradientUnits="userSpaceOnUse">
<stop stop-color="#FF4C00"/>
<stop offset="1" stop-color="#F5B101"/>
</linearGradient>
</defs>
</svg>
