<svg width="73" height="74" viewBox="0 0 73 74" fill="none" xmlns="http://www.w3.org/2000/svg">
<rect x="4.5" y="5" width="64" height="64" rx="10.9712" fill="#090A18"/>
<rect x="2.30576" y="2.80576" width="68.3885" height="68.3885" rx="13.1654" stroke="url(#paint0_linear_1847_3611)" stroke-opacity="0.75" stroke-width="4.38848"/>
<path d="M4.49997 22.9468L5.71032 24.0058C6.66268 24.8392 7.20896 26.043 7.20896 27.3085V46.6909C7.20896 47.9563 6.66268 49.1602 5.71032 49.9935L4.49997 51.0526V22.9468Z" fill="#FFBC4F"/>
<path d="M68.4999 51.0527L67.2896 49.9937C66.3372 49.1604 65.7909 47.9565 65.7909 46.691L65.7909 27.3086C65.7909 26.0432 66.3372 24.8393 67.2896 24.006L68.4999 22.9469L68.4999 51.0527Z" fill="#FFBC4F"/>
<path fill-rule="evenodd" clip-rule="evenodd" d="M54.8303 23.3217L56.5999 16.0527H20.4231L22.1927 23.3217H54.8303ZM44.77 43.8718L38.5116 57.946L33.2807 46.1827L44.77 43.8718ZM45.9273 41.2693L50.597 30.768L28.4105 35.2305L32.3135 44.0076L45.9273 41.2693ZM27.4433 33.0554L51.7542 28.1655L53.2917 24.708H23.7314L27.4433 33.0554ZM49.2341 40.4801L50.1524 45.7776L40.4183 57.746L49.2341 40.4801ZM49.0198 53.4625L47.6293 51.5444L41.5454 57.7607L49.0198 53.4625ZM26.7657 38.3063L25.1619 45.3707L36.6942 57.7515L26.7657 38.3063ZM31.1591 56.0131L28.9778 52.3125L36.1078 57.9319L31.1591 56.0131ZM51.9064 51.0215L50.703 49.3118L49.1026 50.5974L50.306 52.307L51.9064 51.0215ZM21.0313 33.7533L22.6755 35.3975L21.0313 37.0416L19.3871 35.3975L21.0313 33.7533ZM21.6119 39.5304L20.8859 38.8044L20.1599 39.5304L20.8859 40.2563L21.6119 39.5304Z" fill="#FFBC4F"/>
<defs>
<linearGradient id="paint0_linear_1847_3611" x1="-3.50005" y1="-4.5" x2="73" y2="74" gradientUnits="userSpaceOnUse">
<stop stop-color="#FF4C00"/>
<stop offset="1" stop-color="#F5B101"/>
</linearGradient>
</defs>
</svg>
