<svg width="73" height="74" viewBox="0 0 73 74" fill="none" xmlns="http://www.w3.org/2000/svg">
<rect x="4.5" y="5" width="64" height="64" rx="10.9712" fill="#090A18"/>
<rect x="2.30576" y="2.80576" width="68.3885" height="68.3885" rx="13.1654" stroke="url(#paint0_linear_1847_3651)" stroke-opacity="0.75" stroke-width="4.38848"/>
<path d="M4.50006 22.9473L5.7104 24.0063C6.66277 24.8396 7.20905 26.0435 7.20905 27.309V46.6914C7.20905 47.9568 6.66277 49.1607 5.7104 49.994L4.50006 51.0531V22.9473Z" fill="#FFBC4F"/>
<path d="M68.5001 51.0527L67.2897 49.9937C66.3373 49.1604 65.7911 47.9565 65.7911 46.691L65.7911 27.3086C65.7911 26.0432 66.3373 24.8393 67.2897 24.006L68.5001 22.9469L68.5001 51.0527Z" fill="#FFBC4F"/>
<path fill-rule="evenodd" clip-rule="evenodd" d="M45.8922 61.1636C48.823 63.5133 54.6929 61.7277 58.5022 56.9763C62.3115 52.2248 62.6178 46.3069 59.687 43.9572C56.7562 41.6076 51.6639 43.6299 47.8545 48.3814C44.0452 53.1328 42.9614 58.814 45.8922 61.1636ZM47.4598 59.2084C49.7245 61.0241 53.9467 59.5196 56.8902 55.8481C59.8337 52.1765 60.7471 47.2832 58.4823 45.4675C56.2177 43.6519 51.6326 45.6015 48.689 49.2731C45.7455 52.9446 45.1952 57.3928 47.4598 59.2084Z" fill="#FFBC4F"/>
<path fill-rule="evenodd" clip-rule="evenodd" d="M49.0795 57.188C50.6559 58.4518 53.819 57.5259 55.8679 54.9702C57.9169 52.4145 58.0759 49.1968 56.4995 47.933C54.9231 46.6691 52.1887 47.7201 50.1397 50.2758C48.0908 52.8315 47.5031 55.9242 49.0795 57.188ZM49.9228 56.1362C51.1409 57.1128 53.4119 56.3036 54.9952 54.3288C56.5784 52.3539 56.8745 49.9613 55.6563 48.9847C54.4382 48.0082 52.1672 48.8174 50.584 50.7922C49.0007 52.767 48.7047 55.1596 49.9228 56.1362Z" fill="#FFBC4F"/>
<path d="M53.9351 53.4788C53.1129 54.5044 51.9335 54.9247 51.3009 54.4175C50.6683 53.9103 50.822 52.6678 51.6443 51.6422C52.4665 50.6166 53.6459 50.1964 54.2785 50.7035C54.9111 51.2107 54.7574 52.4532 53.9351 53.4788Z" fill="#FFBC4F"/>
<path d="M27.8117 29.0187C29.9816 27.5342 23.9037 17.9689 20.3276 12.5858L38.0247 33.8094L52.7913 52.5618L33.039 39.9367L11.577 23.2243C20.3462 28.6539 25.9181 29.975 27.8117 29.0187Z" fill="#FFBC4F"/>
<defs>
<linearGradient id="paint0_linear_1847_3651" x1="-3.50005" y1="-4.5" x2="73" y2="74" gradientUnits="userSpaceOnUse">
<stop stop-color="#FF4C00"/>
<stop offset="1" stop-color="#F5B101"/>
</linearGradient>
</defs>
</svg>
