<svg width="18" height="18" viewBox="0 0 18 18" fill="none" xmlns="http://www.w3.org/2000/svg">
<path d="M15.2378 3.11583C14.0905 2.58941 12.8602 2.20158 11.5739 1.97945C11.5505 1.97516 11.5271 1.98587 11.515 2.0073C11.3568 2.28871 11.1815 2.65584 11.0588 2.94439C9.6753 2.73727 8.29889 2.73727 6.94374 2.94439C6.82099 2.64942 6.63936 2.28871 6.48043 2.0073C6.46836 1.98659 6.44496 1.97588 6.42154 1.97945C5.13593 2.20087 3.90567 2.5887 2.7577 3.11583C2.74776 3.12011 2.73924 3.12726 2.73359 3.13654C0.400044 6.62281 -0.239213 10.0234 0.0743851 13.3818C0.075804 13.3982 0.0850274 13.414 0.0977985 13.4239C1.63741 14.5546 3.12878 15.241 4.59246 15.696C4.61588 15.7031 4.6407 15.6946 4.65561 15.6753C5.00184 15.2024 5.31048 14.7039 5.57511 14.1796C5.59072 14.1489 5.57582 14.1125 5.5439 14.1003C5.05435 13.9146 4.5882 13.6882 4.1398 13.4311C4.10433 13.4104 4.10149 13.3597 4.13412 13.3354C4.22848 13.2647 4.32286 13.1911 4.41297 13.1168C4.42927 13.1032 4.45198 13.1004 4.47115 13.1089C7.41696 14.4539 10.6062 14.4539 13.5172 13.1089C13.5364 13.0997 13.5591 13.1025 13.5761 13.1161C13.6662 13.1904 13.7606 13.2647 13.8557 13.3354C13.8883 13.3597 13.8862 13.4104 13.8507 13.4311C13.4023 13.6932 12.9361 13.9146 12.4459 14.0996C12.414 14.1118 12.3998 14.1489 12.4154 14.1796C12.6857 14.7032 12.9943 15.2017 13.3342 15.6746C13.3484 15.6946 13.3739 15.7031 13.3973 15.696C14.8681 15.241 16.3595 14.5546 17.8991 13.4239C17.9126 13.414 17.9211 13.3989 17.9225 13.3825C18.2978 9.49982 17.2939 6.12712 15.2612 3.13725C15.2562 3.12726 15.2477 3.12011 15.2378 3.11583ZM6.01502 11.3369C5.12812 11.3369 4.39735 10.5226 4.39735 9.52269C4.39735 8.52272 5.11395 7.70849 6.01502 7.70849C6.92315 7.70849 7.64686 8.52987 7.63266 9.52269C7.63266 10.5226 6.91606 11.3369 6.01502 11.3369ZM11.9961 11.3369C11.1092 11.3369 10.3784 10.5226 10.3784 9.52269C10.3784 8.52272 11.095 7.70849 11.9961 7.70849C12.9042 7.70849 13.6279 8.52987 13.6137 9.52269C13.6137 10.5226 12.9042 11.3369 11.9961 11.3369Z" fill="white"/>
</svg>
